<?xml version="1.0" encoding="UTF-8"?>
<svg xmlns="http://www.w3.org/2000/svg" xmlns:xlink="http://www.w3.org/1999/xlink" width="64pt" height="64pt" viewBox="0 0 64 64" version="1.1">
<g id="surface1">
<path style=" stroke:none;fill-rule:nonzero;fill:rgb(0%,0%,0%);fill-opacity:1;" d="M 0 0 L 64 0 L 64 64 L 0 64 L 0 0 M 28.316406 13.847656 C 25.648438 17.027344 23.613281 21.285156 24.664062 25.507812 C 25.542969 29.550781 28.949219 32.191406 31.515625 35.171875 C 32.746094 36.542969 33.914062 38.410156 33.269531 40.3125 C 32.425781 42.644531 30.542969 44.976562 27.90625 45.195312 C 25.1875 45.34375 22.546875 44.050781 20.511719 42.335938 C 17.234375 38.582031 13.8125 34.953125 10.476562 31.246094 C 13.199219 28.324219 15.878906 25.359375 18.582031 22.417969 C 19.191406 21.804688 19.1875 20.789062 18.664062 20.121094 C 17.769531 18.925781 16.894531 17.710938 15.972656 16.535156 C 15.621094 16.011719 14.886719 16.109375 14.546875 16.589844 C 10.507812 21.128906 6.449219 25.652344 2.414062 30.195312 C 1.789062 30.824219 1.867188 31.851562 2.496094 32.449219 C 6.613281 37.03125 10.683594 41.664062 14.828125 46.226562 C 18.761719 50.339844 24.914062 53.382812 30.636719 51.621094 C 34.308594 50.472656 36.929688 47.304688 38.554688 43.941406 C 39.96875 41.199219 40.335938 37.886719 39.28125 34.960938 C 37.941406 31.253906 34.699219 28.792969 32.296875 25.8125 C 28.945312 22.601562 32.308594 16.765625 36.476562 16.628906 C 39.339844 16.617188 41.996094 18.328125 43.75 20.503906 C 46.972656 24.164062 50.328125 27.699219 53.574219 31.335938 C 50.867188 34.292969 48.160156 37.246094 45.453125 40.203125 C 44.847656 40.828125 44.898438 41.847656 45.425781 42.503906 C 46.328125 43.695312 47.1875 44.921875 48.125 46.085938 C 48.46875 46.566406 49.152344 46.472656 49.484375 46.03125 C 53.535156 41.503906 57.570312 36.964844 61.621094 32.441406 C 62.207031 31.824219 62.195312 30.785156 61.601562 30.175781 C 57.816406 25.941406 54.03125 21.703125 50.25 17.464844 C 47.058594 13.972656 43.347656 10.480469 38.457031 9.785156 C 34.660156 9.136719 30.746094 10.957031 28.316406 13.847656 Z M 28.316406 13.847656 "/>
<path style=" stroke:none;fill-rule:nonzero;fill:rgb(0%,0%,0%);fill-opacity:1;" d="M 4.359375 31.257812 C 8 27.222656 11.578125 23.132812 15.234375 19.113281 C 15.769531 19.773438 16.265625 20.464844 16.78125 21.140625 C 14.070312 24.140625 11.324219 27.113281 8.597656 30.097656 C 7.964844 30.742188 7.992188 31.828125 8.621094 32.464844 C 11.339844 35.433594 14.054688 38.40625 16.777344 41.375 C 16.28125 42.074219 15.765625 42.765625 15.238281 43.445312 C 11.597656 39.394531 7.972656 35.328125 4.359375 31.257812 Z M 4.359375 31.257812 "/>
<path style=" stroke:none;fill-rule:nonzero;fill:rgb(0%,0%,0%);fill-opacity:1;" d="M 48.808594 19.160156 C 52.476562 23.179688 56.089844 27.257812 59.691406 31.335938 C 56.0625 35.390625 52.457031 39.464844 48.8125 43.507812 C 48.3125 42.816406 47.800781 42.136719 47.292969 41.453125 C 49.996094 38.421875 52.777344 35.464844 55.496094 32.449219 C 56.109375 31.796875 56.050781 30.707031 55.414062 30.089844 C 52.703125 27.140625 50.007812 24.175781 47.292969 21.226562 C 47.773438 20.515625 48.292969 19.839844 48.808594 19.160156 Z M 48.808594 19.160156 "/>
<path style=" stroke:none;fill-rule:nonzero;fill:rgb(50.980392%,50.980392%,50.980392%);fill-opacity:1;" d="M 28.316406 13.847656 C 30.746094 10.957031 34.660156 9.136719 38.457031 9.785156 C 43.347656 10.480469 47.058594 13.972656 50.25 17.464844 C 54.03125 21.703125 57.816406 25.941406 61.601562 30.175781 C 62.195312 30.785156 62.207031 31.824219 61.621094 32.441406 C 57.570312 36.964844 53.535156 41.503906 49.484375 46.03125 C 49.152344 46.472656 48.46875 46.566406 48.125 46.085938 C 47.1875 44.921875 46.328125 43.695312 45.425781 42.503906 C 44.898438 41.847656 44.847656 40.828125 45.453125 40.203125 C 48.160156 37.246094 50.867188 34.292969 53.574219 31.335938 C 50.328125 27.699219 46.972656 24.164062 43.75 20.503906 C 41.996094 18.328125 39.339844 16.617188 36.476562 16.628906 C 32.308594 16.765625 28.945312 22.601562 32.296875 25.8125 C 34.699219 28.792969 37.941406 31.253906 39.28125 34.960938 C 40.335938 37.886719 39.96875 41.199219 38.554688 43.941406 C 36.929688 47.304688 34.308594 50.472656 30.636719 51.621094 C 24.914062 53.382812 18.761719 50.339844 14.828125 46.226562 C 10.683594 41.664062 6.613281 37.03125 2.496094 32.449219 C 1.867188 31.851562 1.789062 30.824219 2.414062 30.195312 C 6.449219 25.652344 10.507812 21.128906 14.546875 16.589844 C 14.886719 16.109375 15.621094 16.011719 15.972656 16.535156 C 16.894531 17.710938 17.769531 18.925781 18.664062 20.121094 C 19.1875 20.789062 19.191406 21.804688 18.582031 22.417969 C 15.878906 25.359375 13.199219 28.324219 10.476562 31.246094 C 13.8125 34.953125 17.234375 38.582031 20.511719 42.335938 C 22.546875 44.050781 25.1875 45.34375 27.90625 45.195312 C 30.542969 44.976562 32.425781 42.644531 33.269531 40.3125 C 33.914062 38.410156 32.746094 36.542969 31.515625 35.171875 C 28.949219 32.191406 25.542969 29.550781 24.664062 25.507812 C 23.613281 21.285156 25.648438 17.027344 28.316406 13.847656 M 4.359375 31.257812 C 7.972656 35.328125 11.597656 39.394531 15.238281 43.445312 C 15.765625 42.765625 16.28125 42.074219 16.777344 41.375 C 14.054688 38.40625 11.339844 35.433594 8.621094 32.464844 C 7.992188 31.828125 7.964844 30.742188 8.597656 30.097656 C 11.324219 27.113281 14.070312 24.140625 16.78125 21.140625 C 16.265625 20.464844 15.769531 19.773438 15.234375 19.113281 C 11.578125 23.132812 8 27.222656 4.359375 31.257812 M 48.808594 19.160156 C 48.292969 19.839844 47.773438 20.515625 47.292969 21.226562 C 50.007812 24.175781 52.703125 27.140625 55.414062 30.089844 C 56.050781 30.707031 56.109375 31.796875 55.496094 32.449219 C 52.777344 35.464844 49.996094 38.421875 47.292969 41.453125 C 47.800781 42.136719 48.3125 42.816406 48.8125 43.507812 C 52.457031 39.464844 56.0625 35.390625 59.691406 31.335938 C 56.089844 27.257812 52.476562 23.179688 48.808594 19.160156 Z M 48.808594 19.160156 "/>
</g>
</svg>
