<?xml version="1.0" encoding="UTF-8"?><svg width="256" height="192" viewBox="0 0 256 192" xmlns="http://www.w3.org/2000/svg" xmlns:xlink="http://www.w3.org/1999/xlink"><svg width="64" height="64" viewBox="0 0 64 64" id="3d-modelling" x="64" xmlns="http://www.w3.org/2000/svg"><path d="M9.402 41.434L28.801 15.37v37.43zm45.2 0L35.199 52.8V15.37zM35.203 4.652L32 0l-3.2 4.652L0 43.344l28.8 16.875L32 61.94l3.203-1.722L64 43.344zm0 0" fill-rule="evenodd"/></svg><svg width="64" height="64" viewBox="0 0 64 64" id="css-3" y="128" xmlns="http://www.w3.org/2000/svg"><path d="M58.055 0H5.94C4.695 0 3.758 1.055 3.867 2.305l4.762 53.34c.11 1.25 1.187 2.554 2.398 2.89l18.762 5.211c1.211.336 3.184.34 4.395.004l18.789-5.203c1.21-.336 2.289-1.629 2.398-2.879l4.762-53.363C60.243 1.055 59.309 0 58.055 0zM49.02 19.254c-.004.008-.008.016-.016.016-.008.003-.016 0-.02-.008l-14.703 6.023a.473.473 0 0 0 .18.91h11.437a2.144 2.144 0 0 1 2.13 2.375l-1.786 16.758a2.14 2.14 0 0 1-1.422 1.797l-12.136 4.27a2.117 2.117 0 0 1-1.414.003l-12.082-4.183a2.148 2.148 0 0 1-1.43-1.8l-.809-7.59a1.403 1.403 0 0 1 .356-1.095 1.41 1.41 0 0 1 1.047-.468h3.363c.723 0 1.328.547 1.406 1.265l.496 4.664 8.363 2.907 8.407-2.934 1.027-9.676H17.652a1.412 1.412 0 0 1-1.402-1.258l-.453-4.101a1.41 1.41 0 0 1 .867-1.461l15.203-6.27a.384.384 0 0 0 .235-.437.386.386 0 0 0-.383-.313H15.71a.944.944 0 0 1-.938-.843l-.464-4.41a.942.942 0 0 1 .938-1.04h33.5c.269 0 .523.114.702.317.18.2.262.465.235.73zm0 0"/></svg><svg width="64" height="64" viewBox="0 0 64 64" id="css-file-format-with-brackets" y="64" xmlns="http://www.w3.org/2000/svg"><path d="M39.031 58.465c.086.008.172.015.258.015H58.66a4.117 4.117 0 0 0 4.11-4.109V9.457a4.114 4.114 0 0 0-4.11-4.11H39.29c-.087 0-.173.008-.259.012V0L1.22 5.047v53.766l37.812 5.18zm0-50.742c.086-.012.168-.028.258-.028H58.66c.973 0 1.762.793 1.762 1.762v44.914c0 .969-.79 1.762-1.762 1.762H39.29c-.09 0-.173-.016-.259-.028zM10.715 35.156c.797.012 1.683-.156 2.207-.367l.406 2.2c-.492.245-1.59.491-3.008.452-3.933-.105-5.91-2.73-5.91-6.14 0-4.078 2.707-6.422 6.168-6.516 1.367-.035 2.418.235 2.89.477l-.546 2.242a5.46 5.46 0 0 0-2.223-.426c-2.066.04-3.648 1.375-3.648 4.067 0 2.421 1.344 3.972 3.664 4.011zm7.37 2.492c-1.398-.035-2.769-.445-3.444-.851l.55-2.328c.739.402 1.875.812 3.063.836 1.289.02 1.976-.516 1.976-1.352 0-.797-.593-1.254-2.09-1.808-2.03-.735-3.34-1.887-3.34-3.704 0-2.132 1.723-3.812 4.63-3.886 1.414-.04 2.468.238 3.226.566l-.644 2.363a5.795 5.795 0 0 0-2.637-.566c-1.215.02-1.797.59-1.797 1.246 0 .809.692 1.16 2.297 1.773 2.23.829 3.297 2.016 3.297 3.84 0 2.164-1.649 3.965-5.086 3.871zm10.306.274c-1.524-.04-3.008-.465-3.743-.887l.598-2.426c.797.422 2.035.848 3.32.871 1.403.024 2.149-.535 2.149-1.406 0-.828-.649-1.308-2.27-1.886-2.203-.766-3.625-1.965-3.625-3.856 0-2.223 1.871-3.969 5.028-4.05 1.535-.044 2.68.245 3.504.585l-.7 2.461a6.59 6.59 0 0 0-2.867-.586c-1.316.02-1.953.617-1.953 1.301 0 .84.754 1.207 2.496 1.844 2.426.867 3.582 2.105 3.582 4.004 0 2.261-1.793 4.132-5.52 4.03zm0 0"/><path d="M41.242 33.813c0 .69-.101 1.382-.203 2.074-.105.695-.207 1.41-.207 2.101 0 2.59 1.59 3.516 3.719 3.516h.535V40.09h-.461c-1.434 0-2.023-.793-2.023-2.227 0-.617.078-1.207.18-1.847.1-.614.179-1.254.179-1.946.027-1.64-.691-2.511-1.848-2.797v-.046c1.157-.309 1.875-1.133 1.848-2.77 0-.691-.078-1.309-.18-1.95-.101-.612-.18-1.23-.18-1.82 0-1.382.512-2.199 2.024-2.199h.46v-1.414h-.534c-2.18 0-3.719 1-3.719 3.36 0 .718.102 1.41.207 2.128.102.715.203 1.434.203 2.153 0 .894-.254 1.894-2.074 1.894v1.305c1.82 0 2.074 1.102 2.074 1.898zm0 0M56.063 37.988c0-.691-.102-1.406-.208-2.101-.101-.692-.203-1.383-.203-2.075 0-.796.258-1.898 2.075-1.898V30.61c-1.82 0-2.075-1-2.075-1.894 0-.723.102-1.438.203-2.152.106-.72.208-1.41.208-2.13 0-2.359-1.563-3.359-3.743-3.359h-.511v1.414h.46c1.489.024 2.024.817 2.024 2.2 0 .59-.102 1.207-.18 1.82-.101.644-.207 1.258-.207 1.949 0 1.637.719 2.461 1.848 2.77v.046c-1.129.282-1.848 1.157-1.848 2.797 0 .692.106 1.332.207 1.946.078.64.18 1.23.18 1.847 0 1.434-.613 2.203-2.05 2.227h-.434v1.414h.539c2.101 0 3.715-.926 3.715-3.516zm0 0"/></svg><svg width="64" height="64" viewBox="0 0 64 64" id="expand-corners" x="64" y="64" xmlns="http://www.w3.org/2000/svg"><g fill="#020202"><path d="M22.117 38.848l-7.57 7.57-4.582-4.582a.879.879 0 0 0-.957-.191.878.878 0 0 0-.54.812l-.003 12.176a.88.88 0 0 0 .879.879l12.18.004a.881.881 0 0 0 .812-.543.872.872 0 0 0-.191-.957l-4.579-4.582 7.567-7.57a2.127 2.127 0 0 0 0-3.016 2.127 2.127 0 0 0-3.016 0zm0 0M54.906 41.645a.879.879 0 0 0-.957.19l-4.582 4.583-7.57-7.57a2.127 2.127 0 0 0-3.016 0 2.127 2.127 0 0 0 0 3.015l7.57 7.57-4.581 4.583a.879.879 0 0 0 .62 1.5l12.18-.004a.88.88 0 0 0 .88-.88l-.005-12.175a.878.878 0 0 0-.539-.812zm0 0M17.566 14.438l4.579-4.583a.872.872 0 0 0 .19-.957.881.881 0 0 0-.812-.543l-12.18.004a.878.878 0 0 0-.878.88l.004 12.175c0 .356.21.676.539.813a.879.879 0 0 0 .957-.192l4.582-4.582 7.57 7.57c.418.418.965.625 1.508.625.547 0 1.094-.207 1.508-.625a2.127 2.127 0 0 0 0-3.015zm0 0M54.57 8.36l-12.18-.005a.879.879 0 1 0-.621 1.5l4.583 4.582-7.57 7.57a2.127 2.127 0 0 0 0 3.016c.413.418.96.625 1.507.625a2.12 2.12 0 0 0 1.508-.625l7.57-7.57 4.582 4.582c.25.25.63.328.957.192a.878.878 0 0 0 .54-.813l.003-12.176a.88.88 0 0 0-.879-.879zm0 0"/><path d="M58.984 0H5.016A5.016 5.016 0 0 0 0 5.016v53.968A5.016 5.016 0 0 0 5.016 64h53.968A5.016 5.016 0 0 0 64 58.984V5.016A5.016 5.016 0 0 0 58.984 0zm.75 58.984a.75.75 0 0 1-.75.75H5.016a.75.75 0 0 1-.75-.75V5.016a.75.75 0 0 1 .75-.75h53.968a.75.75 0 0 1 .75.75zm0 0"/></g></svg><svg width="64" height="64" viewBox="0 0 64 64" id="github-logo" x="128" xmlns="http://www.w3.org/2000/svg"><path d="M59.05 17.758c.063-2.938-.585-5.906-1.109-8.828-.18-1.008-.543-1.977-.902-2.934-.273-.719-1.074-1.176-1.809-1.016-.48.102-.906.2-1.324.336-4.355 1.434-8.386 3.528-12.258 5.961-.523.328-1.277.446-1.906.399-1.504-.11-2.992-.485-4.492-.555-3.719-.176-7.43-.062-11.113.582-.512.09-1.188 0-1.614-.273-4.222-2.735-8.617-5.075-13.562-6.387-.742-.195-1.504-.094-1.691.203-.118.18-.22.367-.278.566-.531 1.88-1.164 3.747-1.476 5.66-.371 2.29-.727 4.645-.551 6.93.113 1.434-.285 2.317-1.07 3.325-2.633 3.382-3.817 7.27-3.891 11.53-.063 3.645.422 7.196 1.531 10.68 1.7 5.34 4.985 9.348 9.926 11.954 4.066 2.144 8.496 2.968 13.027 3.129 4.086.144 8.176.023 12.266.046 4.101.024 8.144-.343 12.066-1.62 3.922-1.282 7.32-3.344 9.957-6.587 3.805-4.687 4.989-10.207 5.235-16.054.183-4.47-.727-8.672-3.344-12.328-1.059-1.485-1.656-2.758-1.617-4.72zM51.16 52c-1.758 1.523-3.906 2.242-6.105 2.766-4.32 1.03-8.715 1.289-13.125 1.097-4.36.188-8.668-.082-12.91-1.082-3.13-.734-5.985-1.972-7.977-4.656-3.168-4.277-3.977-12.41 1.258-16.848 1.336-1.132 2.824-1.851 4.582-1.96 1.941-.126 3.887-.368 5.824-.344 4.895.058 9.785.3 14.68.336 2.234.015 4.484-.504 6.703-.372 2.015.125 4.137.497 5.965 1.305 3.05 1.356 4.695 4.098 5.191 7.309.738 4.777-.238 9.125-4.086 12.449zm0 0"/><path d="M47.852 42.691c0-3.441-2.09-6.234-4.664-6.234-2.579 0-4.665 2.793-4.665 6.234 0 3.442 2.086 6.235 4.664 6.235 2.575 0 4.665-2.793 4.665-6.235zm0 0M25.594 42.691c0-3.441-2.086-6.234-4.664-6.234-2.575 0-4.664 2.793-4.664 6.234 0 3.442 2.09 6.235 4.664 6.235 2.578 0 4.664-2.793 4.664-6.235zm0 0"/></svg><svg width="64" height="64" viewBox="0 0 64 64" id="html-5" x="128" y="64" xmlns="http://www.w3.org/2000/svg"><path d="M3.813.02c.03.304.054.585.078.87.246 2.731.484 5.465.73 8.2.313 3.473.625 6.95.934 10.422.261 2.918.52 5.847.777 8.77.297 3.292.594 6.581.887 9.878.258 2.914.515 5.848.777 8.77.316 3.558.64 7.113.941 10.675.02.23.094.329.32.387l22.579 6.371c.191.051.418.051.605 0 7.555-2.12 15.11-4.242 22.664-6.36.258-.07.336-.183.356-.437.16-1.984.344-3.964.52-5.945.19-2.187.39-4.379.585-6.566.176-1.957.348-3.914.524-5.871.2-2.192.394-4.383.59-6.57.168-1.954.343-3.907.523-5.868.192-2.183.387-4.363.582-6.543.176-1.965.348-3.926.528-5.894l.585-6.54c.176-1.988.348-3.98.536-5.968.05-.594.101-1.188.156-1.801C41.648.02 22.754.02 3.812.02zm45.566 18.859H22.188c.214 2.45.425 4.875.632 7.305h25.93c-.066.515-.145 1.003-.191 1.492a407.726 407.726 0 0 0-.344 3.703c-.2 2.234-.395 4.484-.59 6.719-.172 2.011-.344 4.007-.523 6.02-.114 1.269-.239 2.534-.344 3.8-.02.2-.149.207-.262.242-3.066.844-6.125 1.688-9.191 2.528-1.68.468-3.36.937-5.043 1.402a.486.486 0 0 1-.258-.016c-4.758-1.308-9.508-2.617-14.258-3.922-.219-.054-.223-.187-.238-.343-.121-1.528-.242-3.043-.356-4.567l-.48-6.152c-.004-.05-.004-.113-.012-.188h7.043c.059.664.125 1.332.18 1.985.105 1.164.21 2.32.308 3.492.012.133.051.184.18.223 2.55.68 5.094 1.367 7.649 2.054a.62.62 0 0 0 .292-.011c2.52-.676 5.032-1.36 7.555-2.028.153-.047.219-.113.23-.27.278-2.972.563-5.949.848-8.917 0-.012-.004-.024-.008-.055H16.282c-.644-7.184-1.285-14.344-1.93-21.523h35.692c-.215 2.343-.441 4.671-.664 7.027zm0 0"/></svg><svg width="64" height="64" viewBox="0 0 64 64" id="javascript" xmlns="http://www.w3.org/2000/svg"><path d="M7.172 45.242v16.551C7.172 62.906 8.52 64 9.89 64h44.218c1.371 0 2.72-1.094 2.72-2.207v-16.55zm22.644 11.66c0 .52-.097.961-.285 1.317-.195.36-.449.644-.77.86a3.05 3.05 0 0 1-1.109.452 6.385 6.385 0 0 1-1.289.13c-.222 0-.484-.024-.777-.071a6.578 6.578 0 0 1-.922-.207 10.492 10.492 0 0 1-.914-.328 3.282 3.282 0 0 1-.738-.407l.77-1.218c.1.066.241.14.429.215.187.078.39.148.613.21.219.067.453.125.692.176.242.051.468.074.68.074.53 0 .956-.105 1.273-.308.316-.207.484-.555.508-1.047v-8.512h1.84zm8.758.805c-.164.379-.398.711-.703.996a3.38 3.38 0 0 1-1.113.688c-.446.172-.95.254-1.512.254-.242 0-.488-.012-.746-.036a6.085 6.085 0 0 1-.777-.129 4.184 4.184 0 0 1-.746-.25 2.418 2.418 0 0 1-.61-.382l.317-1.301c.136.082.316.16.535.234.215.074.437.145.668.211.23.067.465.117.695.16.23.04.445.059.648.059.614 0 1.086-.14 1.41-.43.329-.285.493-.71.493-1.273 0-.344-.117-.633-.348-.875a3.66 3.66 0 0 0-.867-.656c-.348-.196-.723-.391-1.125-.59a6.806 6.806 0 0 1-1.133-.692 3.593 3.593 0 0 1-.875-.945c-.23-.36-.344-.813-.344-1.355 0-.493.09-.93.27-1.313a2.98 2.98 0 0 1 .73-.973 3.349 3.349 0 0 1 1.075-.613c.406-.14.836-.21 1.289-.21.46 0 .93.042 1.402.128.473.086.855.227 1.148.414-.062.133-.132.274-.21.434-.083.156-.16.3-.227.433-.07.137-.133.25-.184.34-.05.094-.078.145-.09.153a1.529 1.529 0 0 1-.203-.122 1.61 1.61 0 0 0-.324-.148 2.256 2.256 0 0 0-.558-.105 4.998 4.998 0 0 0-.891.015c-.203.02-.39.074-.574.172a1.826 1.826 0 0 0-.817.828 1.258 1.258 0 0 0-.117.508c0 .398.113.727.344.973.23.246.52.46.86.648.343.188.714.367 1.116.543.403.176.778.39 1.125.64.348.25.637.567.868.942.23.379.347.863.347 1.457.004.402-.082.793-.246 1.168zm0 0M56.828 43.035v-27.61c0-.847-.101-1.472-.61-1.98L43.379.605A2.089 2.089 0 0 0 41.915 0H9.891C8.582 0 7.17 1.012 7.17 3.23v39.805zM32.551 35.31a1.104 1.104 0 1 1-2.207 0V32a1.104 1.104 0 0 1 2.207 0zm8.828-31.567c0-.504.61-.758.969-.402l11.14 11.14a.568.568 0 0 1-.402.97H41.379zM40.277 25.38v-4.414c0-.606-.496-1.102-1.105-1.102a1.104 1.104 0 0 1 0-2.207 3.316 3.316 0 0 1 3.312 3.309v4.414c0 1.219.989 2.207 2.207 2.207a1.104 1.104 0 0 1 0 2.207A2.207 2.207 0 0 0 42.484 32v4.414a3.316 3.316 0 0 1-3.312 3.309 1.104 1.104 0 0 1 0-2.207c.61 0 1.105-.493 1.105-1.102V32c0-1.324.598-2.5 1.524-3.309-.926-.812-1.524-1.988-1.524-3.312zm-8.828-2.207c.914 0 1.653.742 1.653 1.656a1.654 1.654 0 1 1-3.309 0c0-.914.742-1.656 1.656-1.656zm-13.242 4.414a2.207 2.207 0 0 0 2.207-2.207v-4.414a3.313 3.313 0 0 1 3.309-3.309 1.104 1.104 0 0 1 0 2.207c-.61 0-1.102.496-1.102 1.102v4.414c0 1.324-.598 2.5-1.523 3.312.925.809 1.523 1.985 1.523 3.309v4.414a1.1 1.1 0 0 0 1.102 1.102 1.104 1.104 0 1 1 0 2.207 3.313 3.313 0 0 1-3.309-3.309V32a2.207 2.207 0 0 0-2.207-2.207c-.61 0-1.105-.496-1.105-1.102 0-.609.496-1.105 1.105-1.105zm0 0"/></svg><svg width="64" height="64" viewBox="0 0 64 64" id="mobile" x="64" y="128" xmlns="http://www.w3.org/2000/svg"><path d="M50.816 59.668V4.316A4.318 4.318 0 0 0 46.5 0H17.484a4.315 4.315 0 0 0-4.316 4.316v55.352a4.315 4.315 0 0 0 4.316 4.316H46.5a4.318 4.318 0 0 0 4.316-4.316zm-18.894 1.68a2.715 2.715 0 1 1 0-5.43 2.717 2.717 0 0 1 2.715 2.715c0 1.5-1.219 2.715-2.715 2.715zm13.066-10.426c0 .656-.531 1.187-1.187 1.187H20.18a1.187 1.187 0 0 1-1.188-1.187V8.309c0-.657.531-1.188 1.188-1.188H43.8c.657 0 1.188.531 1.188 1.188zm0 0"/><path d="M31.363 32.996c.149.152.395.25.66.25.266 0 .516-.098.657-.246l6.543-6.586c.257-.262.21-.629.21-.629l-6.738-6.59c-.144-.144-.402-.246-.672-.242-.273 0-.53.098-.683.25l-6.625 6.578c-.137.145-.11.371.152.633zm0 0M23.86 27.457c-.434-.441-.79-.297-.79.324V36.2c0 .621.352.766.785.32l4.457-4.554zm0 0"/><path d="M34.691 33.023l-.988.997c-.46.464-1.078.671-1.68.671-.601 0-1.222-.207-1.691-.68l-1.004-1.015-4.469 4.566c-.433.442-.28.801.34.801h13.586c.621 0 .77-.36.34-.8zm0 0M40.117 27.563l-4.402 4.433 4.41 4.52c.434.445.79.3.79-.32V27.89c0-.621-.356-.766-.798-.328zm0 0"/></svg><svg width="64" height="64" viewBox="0 0 64 64" id="multi" x="128" y="128" xmlns="http://www.w3.org/2000/svg"><path d="M61.203 49.66h-.875V34.723c0-2.95-2.445-5.344-5.45-5.344h-21.48V19.234h3.672a2.8 2.8 0 0 0 2.797-2.797V5.945a2.8 2.8 0 0 0-2.797-2.797H25.004a2.8 2.8 0 0 0-2.797 2.797v10.492a2.8 2.8 0 0 0 2.797 2.797h3.148V29.38H8.508c-3.008 0-5.36 2.344-5.36 5.344V49.66h-.351A2.802 2.802 0 0 0 0 52.46v5.595a2.8 2.8 0 0 0 2.797 2.797H9.44c1.543 0 2.801-1.254 2.801-2.797V52.46c0-1.543-1.258-2.8-2.8-2.8H8.394V34.722c0-.067 0-.102.113-.102h19.644v15.04h-.523a2.802 2.802 0 0 0-2.797 2.8v5.594a2.8 2.8 0 0 0 2.797 2.797h6.644a2.8 2.8 0 0 0 2.797-2.797V52.46c0-1.543-1.254-2.8-2.797-2.8h-.875V34.62h21.48c.118 0 .204.059.204.102V49.66h-.523a2.806 2.806 0 0 0-2.801 2.8v5.595a2.802 2.802 0 0 0 2.8 2.797h6.645A2.8 2.8 0 0 0 64 58.055V52.46c0-1.543-1.254-2.8-2.797-2.8zm0 0"/></svg><svg width="64" height="64" viewBox="0 0 64 64" id="responsive" x="192" xmlns="http://www.w3.org/2000/svg"><g fill="#020202"><path d="M27.566 44.398H5.23a.942.942 0 0 1-.94-.941V7.113c0-.52.42-.941.94-.941h53.551c.52 0 .942.422.942.941v7.961c1.57.184 3.039.7 4.289 1.543V7.113a5.238 5.238 0 0 0-5.23-5.23H5.23A5.238 5.238 0 0 0 0 7.113v36.344a5.238 5.238 0 0 0 5.23 5.23h17.95V55.7h-2.832a3.215 3.215 0 0 0 0 6.43h9.027c-1.125-1.586-1.809-3.512-1.809-5.606zm0 0"/><path d="M45.566 58.887v-4.633h-9.421V24.668a1.13 1.13 0 0 1 1.128-1.133h21.32c.622 0 1.13.508 1.13 1.133v9.156h1.605c.984 0 1.89.281 2.684.746v-9.902a5.426 5.426 0 0 0-5.418-5.422h-21.32a5.424 5.424 0 0 0-5.419 5.422v31.855a5.426 5.426 0 0 0 5.418 5.422h9.258c-.59-.847-.965-2.03-.965-3.058zm0 0"/><path d="M61.328 36.504H50.93a2.686 2.686 0 0 0-2.684 2.684v19.699a2.686 2.686 0 0 0 2.684 2.683h10.398a2.686 2.686 0 0 0 2.684-2.683v-19.7a2.686 2.686 0 0 0-2.684-2.683zm-9.867 3.215h9.336v17.027H51.46zm4.668 20.547c-.293 0-.559-.121-.758-.305a1.102 1.102 0 0 1-.375-.828 1.134 1.134 0 0 1 2.266 0c0 .332-.149.62-.375.828-.2.184-.465.305-.758.305zm0 0"/></g></svg><svg width="64" height="64" viewBox="0 0 64 64" id="web-development" x="192" y="64" xmlns="http://www.w3.org/2000/svg"><path d="M43.11 53.695a2.865 2.865 0 0 1-1.122-1.277H4.308V15.281h51.145v24.25a2.842 2.842 0 0 1 2.39 1.797 2.84 2.84 0 0 1 1.122-.34c.27-.023.535-.004.797.047V6.027c0-1.98-1.61-3.59-3.59-3.59H3.59C1.61 2.438 0 4.048 0 6.027v47.11c0 1.98 1.61 3.59 3.59 3.59H42.78a2.822 2.822 0 0 1-.199-1.989c.105-.386.285-.742.527-1.043zM51.507 8.47c0-.735.594-1.328 1.328-1.328h1.324c.735 0 1.328.593 1.328 1.328v1.5c0 .734-.593 1.328-1.328 1.328h-1.324a1.327 1.327 0 0 1-1.328-1.328zm-6.164 0c0-.735.593-1.328 1.324-1.328h1.328c.73 0 1.324.593 1.324 1.328v1.5c0 .734-.593 1.328-1.324 1.328h-1.328c-.73 0-1.324-.594-1.324-1.328zm-6.168 0c0-.735.594-1.328 1.328-1.328h1.324c.734 0 1.328.593 1.328 1.328v1.5c0 .734-.593 1.328-1.328 1.328h-1.324a1.327 1.327 0 0 1-1.328-1.328zm0 0"/><path d="M63.98 51.164l-.398-2.258a.559.559 0 0 0-.648-.453l-2.008.352a7.498 7.498 0 0 0-.918-1.582l1.312-1.563a.542.542 0 0 0 .13-.41.547.547 0 0 0-.196-.379l-1.758-1.476a.575.575 0 0 0-.41-.13.567.567 0 0 0-.379.2l-1.312 1.562a7.623 7.623 0 0 0-1.715-.625v-2.039a.565.565 0 0 0-.563-.562h-2.293a.565.565 0 0 0-.562.562v2.04a7.623 7.623 0 0 0-1.715.624l-1.313-1.562a.559.559 0 0 0-.789-.07l-1.758 1.476a.567.567 0 0 0-.199.379.575.575 0 0 0 .13.41l1.316 1.563a7.498 7.498 0 0 0-.918 1.582l-2.008-.352a.559.559 0 0 0-.649.453l-.398 2.258a.547.547 0 0 0 .094.418.546.546 0 0 0 .36.23l2.01.356c.032.621.141 1.227.317 1.8l-1.77 1.02a.559.559 0 0 0-.261.34.578.578 0 0 0 .059.426l1.144 1.984a.57.57 0 0 0 .488.282.59.59 0 0 0 .278-.075l1.77-1.023c.413.445.886.84 1.398 1.176l-.7 1.918a.565.565 0 0 0 .336.718l2.157.786c.062.02.125.03.191.03a.549.549 0 0 0 .523-.367l.7-1.917a7.866 7.866 0 0 0 1.828 0l.699 1.918a.549.549 0 0 0 .523.367.518.518 0 0 0 .192-.031l2.156-.786a.562.562 0 0 0 .336-.718l-.7-1.918c.513-.332.985-.73 1.4-1.176l1.769 1.023a.593.593 0 0 0 .281.075.57.57 0 0 0 .484-.281l1.145-1.985a.56.56 0 0 0-.203-.766l-1.77-1.02c.176-.573.285-1.179.317-1.8l2.011-.355a.554.554 0 0 0 .364-.231.547.547 0 0 0 .093-.418zm-10.007 3.594a3.077 3.077 0 0 1-3.078-3.082c0-1.7 1.375-3.074 3.078-3.074 1.699 0 3.078 1.375 3.078 3.074a3.08 3.08 0 0 1-3.078 3.082zm0 0M25.098 35.867c0-.726-.426-1.39-1.082-1.695l-6.012-2.793 6.012-2.793a1.879 1.879 0 0 0 1.082-1.695v-.047c0-.645-.325-1.23-.864-1.578a1.903 1.903 0 0 0-1.793-.118l-9.613 4.47a1.879 1.879 0 0 0-1.082 1.695v.132c0 .723.426 1.387 1.082 1.696l9.613 4.468a1.852 1.852 0 0 0 1.793-.121c.54-.343.864-.933.864-1.574zm0 0M34.582 20.422a1.88 1.88 0 0 0-1.512-.766h-.047c-.816 0-1.53.52-1.78 1.297L24.91 40.574a1.879 1.879 0 0 0 .274 1.672c.347.477.914.766 1.507.766h.047c.817 0 1.532-.524 1.782-1.297l6.332-19.621a1.89 1.89 0 0 0-.27-1.672zm0 0M46.934 29.617l-9.614-4.469a1.88 1.88 0 0 0-1.79.117 1.863 1.863 0 0 0-.866 1.579v.047c0 .722.426 1.386 1.082 1.695l6.012 2.793-6.012 2.793a1.875 1.875 0 0 0-1.082 1.695v.047a1.868 1.868 0 0 0 1.871 1.871c.274 0 .535-.058.785-.176l9.614-4.468a1.883 1.883 0 0 0 1.082-1.696v-.133c0-.722-.426-1.39-1.082-1.695zm0 0"/></svg><svg width="64" height="64" viewBox="0 0 64 64" id="web-svg" x="192" y="128" xmlns="http://www.w3.org/2000/svg"><path d="M10.246 19.441L32 6.88 53.754 19.44V44.56L32 57.12 10.246 44.56zm0 0" fill="#50a5dc"/><path d="M4.754 17.742l1.215.703c.203.114.422.168.636.168a1.276 1.276 0 0 0 .64-2.379l-1.218-.699A1.268 1.268 0 0 0 4.29 16c-.355.61-.144 1.39.465 1.742zm0 0M59.246 46.258l-4.219-2.434V20.176l4.22-2.434c.608-.351.82-1.133.464-1.742a1.268 1.268 0 0 0-1.738-.465l-4.22 2.434-20.48-11.824V1.273a1.274 1.274 0 0 0-2.546 0v4.872L9.609 18.335a1.273 1.273 0 0 0-.636 1.106v24.383l-4.22 2.434A1.272 1.272 0 0 0 4.29 48a1.267 1.267 0 0 0 1.738.465l4.22-2.434 20.48 11.824v4.872a1.274 1.274 0 0 0 2.546 0v-4.872l20.48-11.824 4.22 2.434A1.267 1.267 0 0 0 59.71 48c.355-.61.144-1.39-.465-1.742zM51.203 19.44l-5.746 3.317a1.275 1.275 0 1 0 1.273 2.21l5.75-3.32v20.704l-8.996-5.196v-11.05c0-.458-.242-.876-.636-1.106l-9.575-5.523V9.09zM32 36.313c-.703 0-1.273.57-1.273 1.273v3.996l-6.387-3.687L32 33.473l7.66 4.422-6.387 3.687v-3.996c0-.703-.57-1.273-1.273-1.273zm-1.273-6.52l-6.387-3.688 6.387-3.687zM29.449 32l-6.383 3.688v-7.376zm5.102 0l3.418-1.973a1.277 1.277 0 0 0-1.273-2.21l-3.423 1.976v-7.375l7.66 4.426v8.843zM11.52 20.176L30.727 9.09v10.387l-8.938 5.156-6.672-3.852a1.276 1.276 0 0 0-1.277 2.207l6.676 3.856V37.16l-8.996 5.192zm1.277 24.383l8.992-5.192 8.938 5.156V54.91zM33.273 54.91V44.523l8.938-5.156 8.992 5.192zm0 0"/></svg></svg>