<?xml version="1.0" encoding="UTF-8"?>
<svg xmlns="http://www.w3.org/2000/svg" xmlns:xlink="http://www.w3.org/1999/xlink" width="64pt" height="64pt" viewBox="0 0 64 64" version="1.1">
<g id="surface1">
<path style=" stroke:none;fill-rule:nonzero;fill:rgb(0%,0%,0%);fill-opacity:1;" d="M 58.054688 0 L 5.941406 0 C 4.695312 0 3.757812 1.054688 3.867188 2.304688 L 8.628906 55.644531 C 8.738281 56.894531 9.816406 58.199219 11.027344 58.535156 L 29.789062 63.746094 C 31 64.082031 32.972656 64.085938 34.183594 63.75 L 52.972656 58.546875 C 54.183594 58.210938 55.261719 56.917969 55.371094 55.667969 L 60.132812 2.304688 C 60.242188 1.054688 59.308594 0 58.054688 0 Z M 49.019531 19.253906 C 49.015625 19.261719 49.011719 19.269531 49.003906 19.269531 C 48.996094 19.273438 48.988281 19.269531 48.984375 19.261719 L 34.28125 25.285156 C 34.070312 25.371094 33.953125 25.59375 33.996094 25.816406 C 34.039062 26.035156 34.234375 26.195312 34.460938 26.195312 L 45.898438 26.195312 C 46.503906 26.195312 47.085938 26.453125 47.492188 26.90625 C 47.898438 27.359375 48.09375 27.964844 48.027344 28.570312 L 46.242188 45.328125 C 46.15625 46.152344 45.601562 46.851562 44.820312 47.125 L 32.683594 51.394531 C 32.226562 51.558594 31.726562 51.558594 31.269531 51.398438 L 19.1875 47.214844 C 18.402344 46.941406 17.847656 46.242188 17.757812 45.414062 L 16.949219 37.824219 C 16.90625 37.425781 17.035156 37.027344 17.304688 36.730469 C 17.570312 36.433594 17.953125 36.261719 18.351562 36.261719 L 21.714844 36.261719 C 22.4375 36.261719 23.042969 36.808594 23.121094 37.527344 L 23.617188 42.191406 L 31.980469 45.097656 L 40.386719 42.164062 L 41.414062 32.488281 L 17.652344 32.488281 C 16.933594 32.488281 16.328125 31.945312 16.25 31.230469 L 15.796875 27.128906 C 15.726562 26.503906 16.082031 25.90625 16.664062 25.667969 L 31.867188 19.398438 C 32.042969 19.328125 32.140625 19.144531 32.101562 18.960938 C 32.066406 18.777344 31.90625 18.648438 31.71875 18.648438 L 15.710938 18.648438 C 15.226562 18.648438 14.824219 18.28125 14.773438 17.804688 L 14.308594 13.394531 C 14.28125 13.128906 14.367188 12.867188 14.546875 12.667969 C 14.726562 12.46875 14.980469 12.355469 15.246094 12.355469 L 48.746094 12.355469 C 49.015625 12.355469 49.269531 12.46875 49.449219 12.671875 C 49.628906 12.871094 49.710938 13.136719 49.683594 13.402344 Z M 49.019531 19.253906 "/>
</g>
</svg>
