<?xml version="1.0" encoding="UTF-8"?>
<svg xmlns="http://www.w3.org/2000/svg" xmlns:xlink="http://www.w3.org/1999/xlink" width="64pt" height="64pt" viewBox="0 0 64 64" version="1.1">
<g id="surface1">
<path style=" stroke:none;fill-rule:nonzero;fill:rgb(0%,0%,0%);fill-opacity:1;" d="M 39.03125 58.464844 C 39.117188 58.472656 39.203125 58.480469 39.289062 58.480469 L 58.660156 58.480469 C 60.925781 58.480469 62.769531 56.632812 62.769531 54.371094 L 62.769531 9.457031 C 62.769531 7.191406 60.925781 5.347656 58.660156 5.347656 L 39.289062 5.347656 C 39.203125 5.347656 39.117188 5.355469 39.03125 5.359375 L 39.03125 0 L 1.21875 5.046875 L 1.21875 58.8125 L 39.03125 63.992188 Z M 39.03125 7.722656 C 39.117188 7.710938 39.199219 7.695312 39.289062 7.695312 L 58.660156 7.695312 C 59.632812 7.695312 60.421875 8.488281 60.421875 9.457031 L 60.421875 54.371094 C 60.421875 55.339844 59.632812 56.132812 58.660156 56.132812 L 39.289062 56.132812 C 39.199219 56.132812 39.117188 56.117188 39.03125 56.105469 Z M 10.714844 35.15625 C 11.511719 35.167969 12.398438 35 12.921875 34.789062 L 13.328125 36.988281 C 12.835938 37.234375 11.738281 37.480469 10.320312 37.441406 C 6.386719 37.335938 4.410156 34.710938 4.410156 31.300781 C 4.410156 27.222656 7.117188 24.878906 10.578125 24.785156 C 11.945312 24.75 12.996094 25.019531 13.46875 25.261719 L 12.921875 27.503906 C 12.382812 27.273438 11.632812 27.066406 10.699219 27.078125 C 8.632812 27.117188 7.050781 28.453125 7.050781 31.144531 C 7.050781 33.566406 8.394531 35.117188 10.714844 35.15625 Z M 18.085938 37.648438 C 16.6875 37.613281 15.316406 37.203125 14.640625 36.796875 L 15.191406 34.46875 C 15.929688 34.871094 17.066406 35.28125 18.253906 35.304688 C 19.542969 35.324219 20.230469 34.789062 20.230469 33.953125 C 20.230469 33.15625 19.636719 32.699219 18.140625 32.144531 C 16.109375 31.410156 14.800781 30.257812 14.800781 28.441406 C 14.800781 26.308594 16.523438 24.628906 19.429688 24.554688 C 20.84375 24.515625 21.898438 24.792969 22.65625 25.121094 L 22.011719 27.484375 C 21.503906 27.242188 20.601562 26.894531 19.375 26.917969 C 18.160156 26.9375 17.578125 27.507812 17.578125 28.164062 C 17.578125 28.972656 18.269531 29.324219 19.875 29.9375 C 22.105469 30.765625 23.171875 31.953125 23.171875 33.777344 C 23.171875 35.941406 21.523438 37.742188 18.085938 37.648438 Z M 28.390625 37.921875 C 26.867188 37.882812 25.382812 37.457031 24.648438 37.035156 L 25.246094 34.609375 C 26.042969 35.03125 27.28125 35.457031 28.566406 35.480469 C 29.96875 35.503906 30.714844 34.945312 30.714844 34.074219 C 30.714844 33.246094 30.066406 32.765625 28.445312 32.1875 C 26.242188 31.421875 24.820312 30.222656 24.820312 28.332031 C 24.820312 26.109375 26.691406 24.363281 29.847656 24.28125 C 31.382812 24.238281 32.527344 24.527344 33.351562 24.867188 L 32.652344 27.328125 C 32.097656 27.078125 31.121094 26.71875 29.785156 26.742188 C 28.46875 26.761719 27.832031 27.359375 27.832031 28.042969 C 27.832031 28.882812 28.585938 29.25 30.328125 29.886719 C 32.753906 30.753906 33.910156 31.992188 33.910156 33.890625 C 33.910156 36.152344 32.117188 38.023438 28.390625 37.921875 Z M 28.390625 37.921875 "/>
<path style=" stroke:none;fill-rule:nonzero;fill:rgb(0%,0%,0%);fill-opacity:1;" d="M 41.242188 33.8125 C 41.242188 34.503906 41.140625 35.195312 41.039062 35.886719 C 40.933594 36.582031 40.832031 37.296875 40.832031 37.988281 C 40.832031 40.578125 42.421875 41.503906 44.550781 41.503906 L 45.085938 41.503906 L 45.085938 40.089844 L 44.625 40.089844 C 43.191406 40.089844 42.601562 39.296875 42.601562 37.863281 C 42.601562 37.246094 42.679688 36.65625 42.78125 36.015625 C 42.882812 35.402344 42.960938 34.761719 42.960938 34.070312 C 42.988281 32.429688 42.269531 31.558594 41.113281 31.273438 L 41.113281 31.226562 C 42.269531 30.917969 42.988281 30.09375 42.960938 28.457031 C 42.960938 27.765625 42.882812 27.148438 42.78125 26.507812 C 42.679688 25.894531 42.601562 25.277344 42.601562 24.6875 C 42.601562 23.304688 43.113281 22.488281 44.625 22.488281 L 45.085938 22.488281 L 45.085938 21.074219 L 44.550781 21.074219 C 42.371094 21.074219 40.832031 22.074219 40.832031 24.433594 C 40.832031 25.152344 40.933594 25.84375 41.039062 26.5625 C 41.140625 27.277344 41.242188 27.996094 41.242188 28.714844 C 41.242188 29.609375 40.988281 30.609375 39.167969 30.609375 L 39.167969 31.914062 C 40.988281 31.914062 41.242188 33.015625 41.242188 33.8125 Z M 41.242188 33.8125 "/>
<path style=" stroke:none;fill-rule:nonzero;fill:rgb(0%,0%,0%);fill-opacity:1;" d="M 56.0625 37.988281 C 56.0625 37.296875 55.960938 36.582031 55.855469 35.886719 C 55.753906 35.195312 55.652344 34.503906 55.652344 33.8125 C 55.652344 33.015625 55.910156 31.914062 57.726562 31.914062 L 57.726562 30.609375 C 55.90625 30.609375 55.652344 29.609375 55.652344 28.714844 C 55.652344 27.992188 55.753906 27.277344 55.855469 26.5625 C 55.960938 25.84375 56.0625 25.152344 56.0625 24.433594 C 56.0625 22.074219 54.5 21.074219 52.320312 21.074219 L 51.808594 21.074219 L 51.808594 22.488281 L 52.269531 22.488281 C 53.757812 22.511719 54.292969 23.304688 54.292969 24.6875 C 54.292969 25.277344 54.191406 25.894531 54.113281 26.507812 C 54.011719 27.152344 53.90625 27.765625 53.90625 28.457031 C 53.90625 30.09375 54.625 30.917969 55.753906 31.226562 L 55.753906 31.273438 C 54.625 31.554688 53.90625 32.429688 53.90625 34.070312 C 53.90625 34.761719 54.011719 35.402344 54.113281 36.015625 C 54.191406 36.65625 54.292969 37.246094 54.292969 37.863281 C 54.292969 39.296875 53.679688 40.066406 52.242188 40.089844 L 51.808594 40.089844 L 51.808594 41.503906 L 52.347656 41.503906 C 54.449219 41.503906 56.0625 40.578125 56.0625 37.988281 Z M 56.0625 37.988281 "/>
</g>
</svg>
