<?xml version="1.0" encoding="UTF-8"?>
<svg xmlns="http://www.w3.org/2000/svg" xmlns:xlink="http://www.w3.org/1999/xlink" width="64pt" height="64pt" viewBox="0 0 64 64" version="1.1">
<g id="surface1">
<path style=" stroke:none;fill-rule:nonzero;fill:rgb(0.784314%,0.784314%,0.784314%);fill-opacity:1;" d="M 22.117188 38.847656 L 14.546875 46.417969 L 9.964844 41.835938 C 9.714844 41.585938 9.335938 41.507812 9.007812 41.644531 C 8.679688 41.78125 8.46875 42.101562 8.46875 42.457031 L 8.464844 54.632812 C 8.464844 55.117188 8.859375 55.511719 9.34375 55.511719 L 21.523438 55.515625 C 21.878906 55.515625 22.199219 55.300781 22.335938 54.972656 C 22.472656 54.644531 22.398438 54.265625 22.144531 54.015625 L 17.566406 49.433594 L 25.132812 41.863281 C 25.96875 41.03125 25.96875 39.679688 25.132812 38.847656 C 24.300781 38.011719 22.949219 38.011719 22.117188 38.847656 Z M 22.117188 38.847656 "/>
<path style=" stroke:none;fill-rule:nonzero;fill:rgb(0.784314%,0.784314%,0.784314%);fill-opacity:1;" d="M 54.90625 41.644531 C 54.578125 41.507812 54.199219 41.585938 53.949219 41.835938 L 49.367188 46.417969 L 41.796875 38.847656 C 40.964844 38.011719 39.613281 38.011719 38.78125 38.847656 C 37.945312 39.679688 37.945312 41.03125 38.78125 41.863281 L 46.351562 49.433594 L 41.769531 54.015625 C 41.519531 54.265625 41.441406 54.644531 41.578125 54.972656 C 41.714844 55.300781 42.035156 55.515625 42.390625 55.515625 L 54.570312 55.511719 C 55.054688 55.511719 55.449219 55.117188 55.449219 54.632812 L 55.445312 42.457031 C 55.445312 42.101562 55.234375 41.78125 54.90625 41.644531 Z M 54.90625 41.644531 "/>
<path style=" stroke:none;fill-rule:nonzero;fill:rgb(0.784314%,0.784314%,0.784314%);fill-opacity:1;" d="M 17.566406 14.4375 L 22.144531 9.855469 C 22.398438 9.605469 22.472656 9.226562 22.335938 8.898438 C 22.199219 8.570312 21.878906 8.355469 21.523438 8.355469 L 9.34375 8.359375 C 8.859375 8.359375 8.464844 8.75 8.464844 9.238281 L 8.46875 21.414062 C 8.46875 21.769531 8.679688 22.089844 9.007812 22.226562 C 9.335938 22.363281 9.714844 22.285156 9.964844 22.035156 L 14.546875 17.453125 L 22.117188 25.023438 C 22.535156 25.441406 23.082031 25.648438 23.625 25.648438 C 24.171875 25.648438 24.71875 25.441406 25.132812 25.023438 C 25.96875 24.191406 25.96875 22.839844 25.132812 22.007812 Z M 17.566406 14.4375 "/>
<path style=" stroke:none;fill-rule:nonzero;fill:rgb(0.784314%,0.784314%,0.784314%);fill-opacity:1;" d="M 54.570312 8.359375 L 42.390625 8.355469 C 42.035156 8.355469 41.714844 8.570312 41.578125 8.898438 C 41.441406 9.226562 41.519531 9.605469 41.769531 9.855469 L 46.351562 14.4375 L 38.78125 22.007812 C 37.945312 22.839844 37.945312 24.191406 38.78125 25.023438 C 39.195312 25.441406 39.742188 25.648438 40.289062 25.648438 C 40.835938 25.648438 41.378906 25.441406 41.796875 25.023438 L 49.367188 17.453125 L 53.949219 22.035156 C 54.199219 22.285156 54.578125 22.363281 54.90625 22.226562 C 55.234375 22.089844 55.445312 21.769531 55.445312 21.414062 L 55.449219 9.238281 C 55.449219 8.753906 55.054688 8.359375 54.570312 8.359375 Z M 54.570312 8.359375 "/>
<path style=" stroke:none;fill-rule:nonzero;fill:rgb(0.784314%,0.784314%,0.784314%);fill-opacity:1;" d="M 58.984375 0 L 5.015625 0 C 2.246094 0 0 2.246094 0 5.015625 L 0 58.984375 C 0 61.753906 2.246094 64 5.015625 64 L 58.984375 64 C 61.753906 64 64 61.753906 64 58.984375 L 64 5.015625 C 64 2.246094 61.753906 0 58.984375 0 Z M 59.734375 58.984375 C 59.734375 59.398438 59.398438 59.734375 58.984375 59.734375 L 5.015625 59.734375 C 4.601562 59.734375 4.265625 59.398438 4.265625 58.984375 L 4.265625 5.015625 C 4.265625 4.601562 4.601562 4.265625 5.015625 4.265625 L 58.984375 4.265625 C 59.398438 4.265625 59.734375 4.601562 59.734375 5.015625 Z M 59.734375 58.984375 "/>
</g>
</svg>
