<?xml version="1.0" encoding="UTF-8"?>
<svg xmlns="http://www.w3.org/2000/svg" xmlns:xlink="http://www.w3.org/1999/xlink" width="64pt" height="64pt" viewBox="0 0 64 64" version="1.1">
<g id="surface1">
<path style=" stroke:none;fill-rule:nonzero;fill:rgb(0%,0%,0%);fill-opacity:1;" d="M 59.050781 17.757812 C 59.113281 14.820312 58.464844 11.851562 57.941406 8.929688 C 57.761719 7.921875 57.398438 6.953125 57.039062 5.996094 C 56.765625 5.277344 55.964844 4.820312 55.230469 4.980469 C 54.75 5.082031 54.324219 5.179688 53.90625 5.316406 C 49.550781 6.75 45.519531 8.84375 41.648438 11.277344 C 41.125 11.605469 40.371094 11.722656 39.742188 11.675781 C 38.238281 11.566406 36.75 11.191406 35.25 11.121094 C 31.53125 10.945312 27.820312 11.058594 24.136719 11.703125 C 23.625 11.792969 22.949219 11.703125 22.523438 11.429688 C 18.300781 8.695312 13.90625 6.355469 8.960938 5.042969 C 8.21875 4.847656 7.457031 4.949219 7.269531 5.246094 C 7.152344 5.425781 7.050781 5.613281 6.992188 5.8125 C 6.460938 7.691406 5.828125 9.558594 5.515625 11.472656 C 5.144531 13.761719 4.789062 16.117188 4.964844 18.402344 C 5.078125 19.835938 4.679688 20.71875 3.894531 21.726562 C 1.261719 25.109375 0.078125 28.996094 0.00390625 33.257812 C -0.0585938 36.902344 0.425781 40.453125 1.535156 43.9375 C 3.234375 49.277344 6.519531 53.285156 11.460938 55.890625 C 15.527344 58.035156 19.957031 58.859375 24.488281 59.019531 C 28.574219 59.164062 32.664062 59.042969 36.753906 59.066406 C 40.855469 59.089844 44.898438 58.722656 48.820312 57.445312 C 52.742188 56.164062 56.140625 54.101562 58.777344 50.859375 C 62.582031 46.171875 63.765625 40.652344 64.011719 34.804688 C 64.195312 30.335938 63.285156 26.132812 60.667969 22.476562 C 59.609375 20.992188 59.011719 19.71875 59.050781 17.757812 Z M 51.160156 52 C 49.402344 53.523438 47.253906 54.242188 45.054688 54.765625 C 40.734375 55.796875 36.339844 56.054688 31.929688 55.863281 C 27.570312 56.050781 23.261719 55.78125 19.019531 54.78125 C 15.890625 54.046875 13.035156 52.808594 11.042969 50.125 C 7.875 45.847656 7.066406 37.714844 12.300781 33.277344 C 13.636719 32.144531 15.125 31.425781 16.882812 31.316406 C 18.824219 31.191406 20.769531 30.949219 22.707031 30.972656 C 27.601562 31.03125 32.492188 31.273438 37.386719 31.308594 C 39.621094 31.324219 41.871094 30.804688 44.089844 30.9375 C 46.105469 31.0625 48.226562 31.433594 50.054688 32.242188 C 53.105469 33.597656 54.75 36.339844 55.246094 39.550781 C 55.984375 44.328125 55.007812 48.675781 51.160156 52 Z M 51.160156 52 "/>
<path style=" stroke:none;fill-rule:nonzero;fill:rgb(0%,0%,0%);fill-opacity:1;" d="M 47.851562 42.691406 C 47.851562 39.25 45.761719 36.457031 43.1875 36.457031 C 40.609375 36.457031 38.523438 39.25 38.523438 42.691406 C 38.523438 46.132812 40.609375 48.925781 43.1875 48.925781 C 45.761719 48.925781 47.851562 46.132812 47.851562 42.691406 Z M 47.851562 42.691406 "/>
<path style=" stroke:none;fill-rule:nonzero;fill:rgb(0%,0%,0%);fill-opacity:1;" d="M 25.59375 42.691406 C 25.59375 39.25 23.507812 36.457031 20.929688 36.457031 C 18.355469 36.457031 16.265625 39.25 16.265625 42.691406 C 16.265625 46.132812 18.355469 48.925781 20.929688 48.925781 C 23.507812 48.925781 25.59375 46.132812 25.59375 42.691406 Z M 25.59375 42.691406 "/>
</g>
</svg>
