<?xml version="1.0" encoding="UTF-8"?>
<svg xmlns="http://www.w3.org/2000/svg" xmlns:xlink="http://www.w3.org/1999/xlink" width="64pt" height="64pt" viewBox="0 0 64 64" version="1.1">
<g id="surface1">
<path style=" stroke:none;fill-rule:nonzero;fill:rgb(0%,0%,0%);fill-opacity:1;" d="M 3.8125 0.0195312 C 3.84375 0.324219 3.867188 0.605469 3.890625 0.890625 C 4.136719 3.621094 4.375 6.355469 4.621094 9.089844 C 4.933594 12.5625 5.246094 16.039062 5.554688 19.511719 C 5.816406 22.429688 6.074219 25.359375 6.332031 28.28125 C 6.628906 31.574219 6.925781 34.863281 7.21875 38.160156 C 7.476562 41.074219 7.734375 44.007812 7.996094 46.929688 C 8.3125 50.488281 8.636719 54.042969 8.9375 57.605469 C 8.957031 57.835938 9.03125 57.933594 9.257812 57.992188 C 16.789062 60.117188 24.316406 62.242188 31.835938 64.363281 C 32.027344 64.414062 32.253906 64.414062 32.441406 64.363281 C 39.996094 62.242188 47.550781 60.121094 55.105469 58.003906 C 55.363281 57.933594 55.441406 57.820312 55.460938 57.566406 C 55.621094 55.582031 55.804688 53.601562 55.980469 51.621094 C 56.171875 49.433594 56.371094 47.242188 56.566406 45.054688 C 56.742188 43.097656 56.914062 41.140625 57.089844 39.183594 C 57.289062 36.992188 57.484375 34.800781 57.679688 32.613281 C 57.847656 30.660156 58.023438 28.707031 58.203125 26.746094 C 58.394531 24.5625 58.589844 22.382812 58.785156 20.203125 C 58.960938 18.238281 59.132812 16.277344 59.3125 14.308594 C 59.507812 12.128906 59.703125 9.949219 59.898438 7.769531 C 60.074219 5.78125 60.246094 3.789062 60.433594 1.800781 C 60.484375 1.207031 60.535156 0.613281 60.589844 0 C 41.648438 0.0195312 22.753906 0.0195312 3.8125 0.0195312 Z M 49.378906 18.878906 C 40.324219 18.878906 31.273438 18.878906 22.1875 18.878906 C 22.402344 21.328125 22.613281 23.753906 22.820312 26.183594 C 31.472656 26.183594 40.09375 26.183594 48.75 26.183594 C 48.683594 26.699219 48.605469 27.1875 48.558594 27.675781 C 48.4375 28.910156 48.324219 30.148438 48.214844 31.378906 C 48.015625 33.613281 47.820312 35.863281 47.625 38.097656 C 47.453125 40.109375 47.28125 42.105469 47.101562 44.117188 C 46.988281 45.386719 46.863281 46.652344 46.757812 47.917969 C 46.738281 48.117188 46.609375 48.125 46.496094 48.160156 C 43.429688 49.003906 40.371094 49.847656 37.304688 50.6875 C 35.625 51.15625 33.945312 51.625 32.261719 52.089844 C 32.1875 52.113281 32.082031 52.097656 32.003906 52.074219 C 27.246094 50.765625 22.496094 49.457031 17.746094 48.152344 C 17.527344 48.097656 17.523438 47.964844 17.507812 47.808594 C 17.386719 46.28125 17.265625 44.765625 17.152344 43.242188 C 16.992188 41.191406 16.832031 39.140625 16.671875 37.089844 C 16.667969 37.039062 16.667969 36.976562 16.660156 36.902344 C 19.007812 36.902344 21.351562 36.902344 23.703125 36.902344 C 23.761719 37.566406 23.828125 38.234375 23.882812 38.886719 C 23.988281 40.050781 24.09375 41.207031 24.191406 42.378906 C 24.203125 42.511719 24.242188 42.5625 24.371094 42.601562 C 26.921875 43.28125 29.464844 43.96875 32.019531 44.65625 C 32.113281 44.679688 32.21875 44.667969 32.3125 44.644531 C 34.832031 43.96875 37.34375 43.285156 39.867188 42.617188 C 40.019531 42.570312 40.085938 42.503906 40.097656 42.347656 C 40.375 39.375 40.660156 36.398438 40.945312 33.429688 C 40.945312 33.417969 40.941406 33.40625 40.9375 33.375 C 32.726562 33.375 24.515625 33.375 16.28125 33.375 C 15.636719 26.191406 14.996094 19.03125 14.351562 11.851562 C 26.265625 11.851562 38.121094 11.851562 50.042969 11.851562 C 49.828125 14.195312 49.601562 16.523438 49.378906 18.878906 Z M 49.378906 18.878906 "/>
</g>
</svg>
