<?xml version="1.0" encoding="UTF-8"?>
<svg xmlns="http://www.w3.org/2000/svg" xmlns:xlink="http://www.w3.org/1999/xlink" width="64pt" height="64pt" viewBox="0 0 64 64" version="1.1">
<g id="surface1">
<path style=" stroke:none;fill-rule:nonzero;fill:rgb(0%,0%,0%);fill-opacity:1;" d="M 7.171875 45.242188 L 7.171875 61.792969 C 7.171875 62.90625 8.519531 64 9.890625 64 L 54.109375 64 C 55.480469 64 56.828125 62.90625 56.828125 61.792969 L 56.828125 45.242188 Z M 29.816406 56.902344 C 29.816406 57.421875 29.71875 57.863281 29.53125 58.21875 C 29.335938 58.578125 29.082031 58.863281 28.761719 59.078125 C 28.4375 59.296875 28.070312 59.445312 27.652344 59.53125 C 27.234375 59.617188 26.804688 59.660156 26.363281 59.660156 C 26.140625 59.660156 25.878906 59.636719 25.585938 59.589844 C 25.289062 59.546875 24.980469 59.476562 24.664062 59.382812 C 24.347656 59.285156 24.042969 59.175781 23.75 59.054688 C 23.460938 58.9375 23.214844 58.800781 23.011719 58.648438 L 23.78125 57.429688 C 23.882812 57.496094 24.023438 57.570312 24.210938 57.644531 C 24.398438 57.722656 24.601562 57.792969 24.824219 57.855469 C 25.042969 57.921875 25.277344 57.980469 25.515625 58.03125 C 25.757812 58.082031 25.984375 58.105469 26.195312 58.105469 C 26.726562 58.105469 27.152344 58 27.46875 57.796875 C 27.785156 57.589844 27.953125 57.242188 27.976562 56.75 L 27.976562 48.238281 L 29.816406 48.238281 Z M 38.574219 57.707031 C 38.410156 58.085938 38.175781 58.417969 37.871094 58.703125 C 37.570312 58.988281 37.199219 59.21875 36.757812 59.390625 C 36.3125 59.5625 35.808594 59.644531 35.246094 59.644531 C 35.003906 59.644531 34.757812 59.632812 34.5 59.609375 C 34.242188 59.585938 33.984375 59.539062 33.722656 59.480469 C 33.460938 59.417969 33.210938 59.335938 32.976562 59.230469 C 32.742188 59.125 32.535156 58.996094 32.367188 58.847656 L 32.683594 57.546875 C 32.820312 57.628906 33 57.707031 33.21875 57.78125 C 33.433594 57.855469 33.65625 57.925781 33.886719 57.992188 C 34.117188 58.058594 34.351562 58.109375 34.582031 58.152344 C 34.8125 58.191406 35.027344 58.210938 35.230469 58.210938 C 35.84375 58.210938 36.316406 58.070312 36.640625 57.78125 C 36.96875 57.496094 37.132812 57.070312 37.132812 56.507812 C 37.132812 56.164062 37.015625 55.875 36.785156 55.632812 C 36.554688 55.390625 36.265625 55.171875 35.917969 54.976562 C 35.570312 54.78125 35.195312 54.585938 34.792969 54.386719 C 34.390625 54.191406 34.011719 53.960938 33.660156 53.695312 C 33.308594 53.429688 33.015625 53.113281 32.785156 52.75 C 32.554688 52.390625 32.441406 51.9375 32.441406 51.394531 C 32.441406 50.902344 32.53125 50.464844 32.710938 50.082031 C 32.894531 49.699219 33.136719 49.375 33.441406 49.109375 C 33.75 48.84375 34.109375 48.640625 34.515625 48.496094 C 34.921875 48.355469 35.351562 48.285156 35.804688 48.285156 C 36.265625 48.285156 36.734375 48.328125 37.207031 48.414062 C 37.679688 48.5 38.0625 48.640625 38.355469 48.828125 C 38.292969 48.960938 38.222656 49.101562 38.144531 49.261719 C 38.0625 49.417969 37.984375 49.5625 37.917969 49.695312 C 37.847656 49.832031 37.785156 49.945312 37.734375 50.035156 C 37.683594 50.128906 37.65625 50.179688 37.644531 50.1875 C 37.585938 50.160156 37.515625 50.117188 37.441406 50.066406 C 37.363281 50.015625 37.257812 49.96875 37.117188 49.917969 C 36.976562 49.867188 36.789062 49.832031 36.558594 49.8125 C 36.328125 49.789062 36.03125 49.796875 35.667969 49.828125 C 35.464844 49.847656 35.277344 49.902344 35.09375 50 C 34.910156 50.09375 34.75 50.210938 34.609375 50.355469 C 34.46875 50.496094 34.359375 50.652344 34.277344 50.828125 C 34.199219 51.003906 34.160156 51.175781 34.160156 51.335938 C 34.160156 51.734375 34.273438 52.0625 34.503906 52.308594 C 34.734375 52.554688 35.023438 52.769531 35.363281 52.957031 C 35.707031 53.144531 36.078125 53.324219 36.480469 53.5 C 36.882812 53.675781 37.257812 53.890625 37.605469 54.140625 C 37.953125 54.390625 38.242188 54.707031 38.472656 55.082031 C 38.703125 55.460938 38.820312 55.945312 38.820312 56.539062 C 38.824219 56.941406 38.738281 57.332031 38.574219 57.707031 Z M 38.574219 57.707031 "/>
<path style=" stroke:none;fill-rule:nonzero;fill:rgb(0%,0%,0%);fill-opacity:1;" d="M 56.828125 43.035156 L 56.828125 15.425781 C 56.828125 14.578125 56.726562 13.953125 56.21875 13.445312 L 43.378906 0.605469 C 42.996094 0.222656 42.460938 0 41.914062 0 L 9.890625 0 C 8.582031 0 7.171875 1.011719 7.171875 3.230469 L 7.171875 43.035156 Z M 32.550781 35.308594 C 32.550781 35.917969 32.058594 36.414062 31.449219 36.414062 C 30.839844 36.414062 30.34375 35.917969 30.34375 35.308594 L 30.34375 32 C 30.34375 31.390625 30.839844 30.898438 31.449219 30.898438 C 32.058594 30.898438 32.550781 31.390625 32.550781 32 Z M 41.378906 3.742188 C 41.378906 3.238281 41.988281 2.984375 42.347656 3.339844 L 53.488281 14.480469 C 53.84375 14.839844 53.589844 15.449219 53.085938 15.449219 L 41.378906 15.449219 Z M 40.277344 25.378906 L 40.277344 20.964844 C 40.277344 20.359375 39.78125 19.863281 39.171875 19.863281 C 38.5625 19.863281 38.070312 19.367188 38.070312 18.757812 C 38.070312 18.148438 38.5625 17.65625 39.171875 17.65625 C 40.996094 17.65625 42.484375 19.140625 42.484375 20.964844 L 42.484375 25.378906 C 42.484375 26.597656 43.472656 27.585938 44.691406 27.585938 C 45.300781 27.585938 45.792969 28.082031 45.792969 28.691406 C 45.792969 29.296875 45.300781 29.792969 44.691406 29.792969 C 43.472656 29.792969 42.484375 30.78125 42.484375 32 L 42.484375 36.414062 C 42.484375 38.238281 40.996094 39.722656 39.171875 39.722656 C 38.5625 39.722656 38.070312 39.230469 38.070312 38.621094 C 38.070312 38.011719 38.5625 37.515625 39.171875 37.515625 C 39.78125 37.515625 40.277344 37.023438 40.277344 36.414062 L 40.277344 32 C 40.277344 30.675781 40.875 29.5 41.800781 28.691406 C 40.875 27.878906 40.277344 26.703125 40.277344 25.378906 Z M 31.449219 23.171875 C 32.363281 23.171875 33.101562 23.914062 33.101562 24.828125 C 33.101562 25.742188 32.363281 26.484375 31.449219 26.484375 C 30.535156 26.484375 29.792969 25.742188 29.792969 24.828125 C 29.792969 23.914062 30.535156 23.171875 31.449219 23.171875 Z M 18.207031 27.585938 C 19.425781 27.585938 20.414062 26.597656 20.414062 25.378906 L 20.414062 20.964844 C 20.414062 19.140625 21.898438 17.65625 23.722656 17.65625 C 24.335938 17.65625 24.828125 18.148438 24.828125 18.757812 C 24.828125 19.367188 24.335938 19.863281 23.722656 19.863281 C 23.113281 19.863281 22.621094 20.359375 22.621094 20.964844 L 22.621094 25.378906 C 22.621094 26.703125 22.023438 27.878906 21.097656 28.691406 C 22.023438 29.5 22.621094 30.675781 22.621094 32 L 22.621094 36.414062 C 22.621094 37.023438 23.113281 37.515625 23.722656 37.515625 C 24.335938 37.515625 24.828125 38.011719 24.828125 38.621094 C 24.828125 39.230469 24.335938 39.722656 23.722656 39.722656 C 21.898438 39.722656 20.414062 38.238281 20.414062 36.414062 L 20.414062 32 C 20.414062 30.78125 19.425781 29.792969 18.207031 29.792969 C 17.597656 29.792969 17.101562 29.296875 17.101562 28.691406 C 17.101562 28.082031 17.597656 27.585938 18.207031 27.585938 Z M 18.207031 27.585938 "/>
</g>
</svg>
