<?xml version="1.0" encoding="UTF-8"?>
<svg xmlns="http://www.w3.org/2000/svg" xmlns:xlink="http://www.w3.org/1999/xlink" width="64pt" height="64pt" viewBox="0 0 64 64" version="1.1">
<g id="surface1">
<path style=" stroke:none;fill-rule:nonzero;fill:rgb(0%,0%,0%);fill-opacity:1;" d="M 50.816406 59.667969 L 50.816406 4.316406 C 50.816406 1.933594 48.882812 0 46.5 0 L 17.484375 0 C 15.097656 0 13.167969 1.933594 13.167969 4.316406 L 13.167969 59.667969 C 13.167969 62.050781 15.097656 63.984375 17.484375 63.984375 L 46.5 63.984375 C 48.882812 63.984375 50.816406 62.050781 50.816406 59.667969 Z M 31.921875 61.347656 C 30.417969 61.347656 29.203125 60.132812 29.203125 58.632812 C 29.203125 57.132812 30.417969 55.917969 31.921875 55.917969 C 33.417969 55.917969 34.636719 57.132812 34.636719 58.632812 C 34.636719 60.132812 33.417969 61.347656 31.921875 61.347656 Z M 44.988281 50.921875 C 44.988281 51.578125 44.457031 52.109375 43.800781 52.109375 L 20.179688 52.109375 C 19.523438 52.109375 18.992188 51.578125 18.992188 50.921875 L 18.992188 8.308594 C 18.992188 7.652344 19.523438 7.121094 20.179688 7.121094 L 43.800781 7.121094 C 44.457031 7.121094 44.988281 7.652344 44.988281 8.308594 Z M 44.988281 50.921875 "/>
<path style=" stroke:none;fill-rule:nonzero;fill:rgb(0%,0%,0%);fill-opacity:1;" d="M 31.363281 32.996094 C 31.511719 33.148438 31.757812 33.246094 32.023438 33.246094 C 32.289062 33.246094 32.539062 33.148438 32.679688 33 L 39.222656 26.414062 C 39.480469 26.152344 39.433594 25.785156 39.433594 25.785156 L 32.695312 19.195312 C 32.550781 19.050781 32.292969 18.949219 32.023438 18.953125 C 31.75 18.953125 31.492188 19.050781 31.339844 19.203125 L 24.714844 25.78125 C 24.578125 25.925781 24.605469 26.152344 24.867188 26.414062 Z M 31.363281 32.996094 "/>
<path style=" stroke:none;fill-rule:nonzero;fill:rgb(0%,0%,0%);fill-opacity:1;" d="M 23.859375 27.457031 C 23.425781 27.015625 23.070312 27.160156 23.070312 27.78125 L 23.070312 36.199219 C 23.070312 36.820312 23.421875 36.964844 23.855469 36.519531 L 28.3125 31.964844 Z M 23.859375 27.457031 "/>
<path style=" stroke:none;fill-rule:nonzero;fill:rgb(0%,0%,0%);fill-opacity:1;" d="M 34.691406 33.023438 L 33.703125 34.019531 C 33.242188 34.484375 32.625 34.691406 32.023438 34.691406 C 31.421875 34.691406 30.800781 34.484375 30.332031 34.011719 L 29.328125 32.996094 L 24.859375 37.5625 C 24.425781 38.003906 24.578125 38.363281 25.199219 38.363281 L 38.785156 38.363281 C 39.40625 38.363281 39.554688 38.003906 39.125 37.5625 Z M 34.691406 33.023438 "/>
<path style=" stroke:none;fill-rule:nonzero;fill:rgb(0%,0%,0%);fill-opacity:1;" d="M 40.117188 27.5625 L 35.714844 31.996094 L 40.125 36.515625 C 40.558594 36.960938 40.914062 36.816406 40.914062 36.195312 L 40.914062 27.890625 C 40.914062 27.269531 40.558594 27.125 40.117188 27.5625 Z M 40.117188 27.5625 "/>
</g>
</svg>
