<?xml version="1.0" encoding="UTF-8"?>
<svg xmlns="http://www.w3.org/2000/svg" xmlns:xlink="http://www.w3.org/1999/xlink" width="64pt" height="64pt" viewBox="0 0 64 64" version="1.1">
<g id="surface1">
<path style=" stroke:none;fill-rule:nonzero;fill:rgb(0%,0%,0%);fill-opacity:1;" d="M 61.203125 49.660156 L 60.328125 49.660156 L 60.328125 34.722656 C 60.328125 31.773438 57.882812 29.378906 54.878906 29.378906 L 33.398438 29.378906 L 33.398438 19.234375 L 37.070312 19.234375 C 38.613281 19.234375 39.867188 17.980469 39.867188 16.4375 L 39.867188 5.945312 C 39.867188 4.402344 38.613281 3.148438 37.070312 3.148438 L 25.003906 3.148438 C 23.460938 3.148438 22.207031 4.402344 22.207031 5.945312 L 22.207031 16.4375 C 22.207031 17.980469 23.460938 19.234375 25.003906 19.234375 L 28.152344 19.234375 L 28.152344 29.378906 L 8.507812 29.378906 C 5.5 29.378906 3.148438 31.722656 3.148438 34.722656 L 3.148438 49.660156 L 2.796875 49.660156 C 1.253906 49.660156 0 50.917969 0 52.460938 L 0 58.054688 C 0 59.597656 1.253906 60.851562 2.796875 60.851562 L 9.441406 60.851562 C 10.984375 60.851562 12.242188 59.597656 12.242188 58.054688 L 12.242188 52.460938 C 12.242188 50.917969 10.984375 49.660156 9.441406 49.660156 L 8.394531 49.660156 L 8.394531 34.722656 C 8.394531 34.65625 8.394531 34.621094 8.507812 34.621094 L 28.152344 34.621094 L 28.152344 49.660156 L 27.628906 49.660156 C 26.085938 49.660156 24.832031 50.917969 24.832031 52.460938 L 24.832031 58.054688 C 24.832031 59.597656 26.085938 60.851562 27.628906 60.851562 L 34.273438 60.851562 C 35.816406 60.851562 37.070312 59.597656 37.070312 58.054688 L 37.070312 52.460938 C 37.070312 50.917969 35.816406 49.660156 34.273438 49.660156 L 33.398438 49.660156 L 33.398438 34.621094 L 54.878906 34.621094 C 54.996094 34.621094 55.082031 34.679688 55.082031 34.722656 L 55.082031 49.660156 L 54.558594 49.660156 C 53.015625 49.660156 51.757812 50.917969 51.757812 52.460938 L 51.757812 58.054688 C 51.757812 59.597656 53.015625 60.851562 54.558594 60.851562 L 61.203125 60.851562 C 62.746094 60.851562 64 59.597656 64 58.054688 L 64 52.460938 C 64 50.917969 62.746094 49.660156 61.203125 49.660156 Z M 61.203125 49.660156 "/>
</g>
</svg>
