<?xml version="1.0" encoding="UTF-8"?>
<svg xmlns="http://www.w3.org/2000/svg" xmlns:xlink="http://www.w3.org/1999/xlink" width="64pt" height="64pt" viewBox="0 0 64 64" version="1.1">
<g id="surface1">
<path style=" stroke:none;fill-rule:nonzero;fill:rgb(0.784314%,0.784314%,0.784314%);fill-opacity:1;" d="M 27.566406 44.398438 L 5.230469 44.398438 C 4.710938 44.398438 4.289062 43.976562 4.289062 43.457031 L 4.289062 7.113281 C 4.289062 6.59375 4.710938 6.171875 5.230469 6.171875 L 58.78125 6.171875 C 59.300781 6.171875 59.722656 6.59375 59.722656 7.113281 L 59.722656 15.074219 C 61.292969 15.257812 62.761719 15.773438 64.011719 16.617188 L 64.011719 7.113281 C 64.011719 4.230469 61.664062 1.882812 58.78125 1.882812 L 5.230469 1.882812 C 2.347656 1.882812 0 4.230469 0 7.113281 L 0 43.457031 C 0 46.339844 2.347656 48.6875 5.230469 48.6875 L 23.179688 48.6875 L 23.179688 55.699219 L 20.347656 55.699219 C 18.574219 55.699219 17.132812 57.136719 17.132812 58.914062 C 17.132812 60.691406 18.574219 62.128906 20.347656 62.128906 L 29.375 62.128906 C 28.25 60.542969 27.566406 58.617188 27.566406 56.523438 Z M 27.566406 44.398438 "/>
<path style=" stroke:none;fill-rule:nonzero;fill:rgb(0.784314%,0.784314%,0.784314%);fill-opacity:1;" d="M 45.566406 58.886719 L 45.566406 54.253906 L 36.144531 54.253906 L 36.144531 24.667969 C 36.144531 24.042969 36.648438 23.535156 37.273438 23.535156 L 58.59375 23.535156 C 59.214844 23.535156 59.722656 24.042969 59.722656 24.667969 L 59.722656 33.824219 L 61.328125 33.824219 C 62.3125 33.824219 63.21875 34.105469 64.011719 34.570312 L 64.011719 24.667969 C 64.011719 21.675781 61.578125 19.246094 58.59375 19.246094 L 37.273438 19.246094 C 34.285156 19.246094 31.855469 21.675781 31.855469 24.667969 L 31.855469 56.523438 C 31.855469 59.511719 34.285156 61.945312 37.273438 61.945312 L 46.53125 61.945312 C 45.941406 61.097656 45.566406 59.914062 45.566406 58.886719 Z M 45.566406 58.886719 "/>
<path style=" stroke:none;fill-rule:nonzero;fill:rgb(0.784314%,0.784314%,0.784314%);fill-opacity:1;" d="M 61.328125 36.503906 L 50.929688 36.503906 C 49.449219 36.503906 48.246094 37.707031 48.246094 39.1875 L 48.246094 58.886719 C 48.246094 60.367188 49.449219 61.570312 50.929688 61.570312 L 61.328125 61.570312 C 62.808594 61.570312 64.011719 60.367188 64.011719 58.886719 L 64.011719 39.1875 C 64.011719 37.707031 62.808594 36.503906 61.328125 36.503906 Z M 51.460938 39.71875 L 60.796875 39.71875 L 60.796875 56.746094 L 51.460938 56.746094 Z M 56.128906 60.265625 C 55.835938 60.265625 55.570312 60.144531 55.371094 59.960938 C 55.140625 59.753906 54.996094 59.464844 54.996094 59.132812 C 54.996094 58.507812 55.503906 58 56.128906 58 C 56.753906 58 57.261719 58.507812 57.261719 59.132812 C 57.261719 59.464844 57.113281 59.753906 56.886719 59.960938 C 56.6875 60.144531 56.421875 60.265625 56.128906 60.265625 Z M 56.128906 60.265625 "/>
</g>
</svg>
