<?xml version="1.0" encoding="UTF-8"?>
<svg xmlns="http://www.w3.org/2000/svg" xmlns:xlink="http://www.w3.org/1999/xlink" width="64pt" height="64pt" viewBox="0 0 64 64" version="1.1">
<g id="surface1">
<path style=" stroke:none;fill-rule:nonzero;fill:rgb(31.372549%,64.705882%,86.27451%);fill-opacity:1;" d="M 10.246094 19.441406 L 32 6.878906 L 53.753906 19.441406 L 53.753906 44.558594 L 32 57.121094 L 10.246094 44.558594 Z M 10.246094 19.441406 "/>
<path style=" stroke:none;fill-rule:nonzero;fill:rgb(0%,0%,0%);fill-opacity:1;" d="M 4.753906 17.742188 L 5.96875 18.445312 C 6.171875 18.558594 6.390625 18.613281 6.605469 18.613281 C 7.046875 18.613281 7.476562 18.386719 7.710938 17.976562 C 8.0625 17.367188 7.855469 16.585938 7.246094 16.234375 L 6.027344 15.535156 C 5.417969 15.179688 4.640625 15.390625 4.289062 16 C 3.933594 16.609375 4.144531 17.390625 4.753906 17.742188 Z M 4.753906 17.742188 "/>
<path style=" stroke:none;fill-rule:nonzero;fill:rgb(0%,0%,0%);fill-opacity:1;" d="M 59.246094 46.257812 L 55.027344 43.824219 L 55.027344 20.175781 L 59.246094 17.742188 C 59.855469 17.390625 60.066406 16.609375 59.710938 16 C 59.359375 15.390625 58.582031 15.179688 57.972656 15.535156 L 53.753906 17.96875 L 33.273438 6.144531 L 33.273438 1.273438 C 33.273438 0.570312 32.703125 0 32 0 C 31.296875 0 30.726562 0.570312 30.726562 1.273438 L 30.726562 6.144531 L 9.609375 18.335938 C 9.214844 18.5625 8.972656 18.984375 8.972656 19.441406 L 8.972656 43.824219 L 4.753906 46.257812 C 4.144531 46.609375 3.933594 47.390625 4.289062 48 C 4.523438 48.410156 4.953125 48.636719 5.390625 48.636719 C 5.609375 48.636719 5.828125 48.582031 6.027344 48.464844 L 10.246094 46.03125 L 30.726562 57.855469 L 30.726562 62.726562 C 30.726562 63.429688 31.296875 64 32 64 C 32.703125 64 33.273438 63.429688 33.273438 62.726562 L 33.273438 57.855469 L 53.753906 46.03125 L 57.972656 48.464844 C 58.171875 48.582031 58.390625 48.636719 58.609375 48.636719 C 59.046875 48.636719 59.476562 48.410156 59.710938 48 C 60.066406 47.390625 59.855469 46.609375 59.246094 46.257812 Z M 51.203125 19.441406 L 45.457031 22.757812 C 44.84375 23.113281 44.636719 23.890625 44.988281 24.5 C 45.226562 24.910156 45.652344 25.136719 46.09375 25.136719 C 46.308594 25.136719 46.53125 25.082031 46.730469 24.96875 L 52.480469 21.648438 L 52.480469 42.351562 L 43.484375 37.15625 L 43.484375 26.105469 C 43.484375 25.648438 43.242188 25.230469 42.847656 25 L 33.273438 19.476562 L 33.273438 9.089844 Z M 32 36.3125 C 31.296875 36.3125 30.726562 36.882812 30.726562 37.585938 L 30.726562 41.582031 L 24.339844 37.894531 L 32 33.472656 L 39.660156 37.894531 L 33.273438 41.582031 L 33.273438 37.585938 C 33.273438 36.882812 32.703125 36.3125 32 36.3125 Z M 30.726562 29.792969 L 24.339844 26.105469 L 30.726562 22.417969 Z M 29.449219 32 L 23.066406 35.6875 L 23.066406 28.3125 Z M 34.550781 32 L 37.96875 30.027344 C 38.578125 29.671875 38.789062 28.894531 38.4375 28.285156 C 38.085938 27.675781 37.304688 27.464844 36.695312 27.816406 L 33.273438 29.792969 L 33.273438 22.417969 L 40.933594 26.84375 L 40.933594 35.6875 Z M 11.519531 20.175781 L 30.726562 9.089844 L 30.726562 19.476562 L 21.789062 24.632812 L 15.117188 20.78125 C 14.507812 20.429688 13.726562 20.636719 13.375 21.246094 C 13.023438 21.855469 13.230469 22.636719 13.839844 22.988281 L 20.515625 26.84375 L 20.515625 37.160156 L 11.519531 42.351562 Z M 12.796875 44.558594 L 21.789062 39.367188 L 30.726562 44.523438 L 30.726562 54.910156 Z M 33.273438 54.910156 L 33.273438 44.523438 L 42.210938 39.367188 L 51.203125 44.558594 Z M 33.273438 54.910156 "/>
</g>
</svg>
