<?xml version="1.0" encoding="UTF-8"?>
<svg xmlns="http://www.w3.org/2000/svg" xmlns:xlink="http://www.w3.org/1999/xlink" width="64pt" height="64pt" viewBox="0 0 64 64" version="1.1">
<g id="surface1">
<path style=" stroke:none;fill-rule:nonzero;fill:rgb(0%,0%,0%);fill-opacity:1;" d="M 43.109375 53.695312 C 42.777344 53.492188 42.488281 53.222656 42.257812 52.894531 C 42.152344 52.742188 42.0625 52.582031 41.988281 52.417969 L 4.308594 52.417969 L 4.308594 15.28125 L 55.453125 15.28125 L 55.453125 39.53125 C 56.542969 39.628906 57.460938 40.34375 57.84375 41.328125 C 58.183594 41.140625 58.566406 41.023438 58.964844 40.988281 C 59.234375 40.964844 59.5 40.984375 59.761719 41.035156 L 59.761719 6.027344 C 59.761719 4.046875 58.152344 2.4375 56.171875 2.4375 L 3.589844 2.4375 C 1.609375 2.4375 0 4.046875 0 6.027344 L 0 53.136719 C 0 55.117188 1.609375 56.726562 3.589844 56.726562 L 42.78125 56.726562 C 42.476562 56.109375 42.402344 55.410156 42.582031 54.738281 C 42.6875 54.351562 42.867188 53.996094 43.109375 53.695312 Z M 51.507812 8.46875 C 51.507812 7.734375 52.101562 7.140625 52.835938 7.140625 L 54.160156 7.140625 C 54.894531 7.140625 55.488281 7.734375 55.488281 8.46875 L 55.488281 9.96875 C 55.488281 10.703125 54.894531 11.296875 54.160156 11.296875 L 52.835938 11.296875 C 52.101562 11.296875 51.507812 10.703125 51.507812 9.96875 Z M 45.34375 8.46875 C 45.34375 7.734375 45.9375 7.140625 46.667969 7.140625 L 47.996094 7.140625 C 48.726562 7.140625 49.320312 7.734375 49.320312 8.46875 L 49.320312 9.96875 C 49.320312 10.703125 48.726562 11.296875 47.996094 11.296875 L 46.667969 11.296875 C 45.9375 11.296875 45.34375 10.703125 45.34375 9.96875 Z M 39.175781 8.46875 C 39.175781 7.734375 39.769531 7.140625 40.503906 7.140625 L 41.828125 7.140625 C 42.5625 7.140625 43.15625 7.734375 43.15625 8.46875 L 43.15625 9.96875 C 43.15625 10.703125 42.5625 11.296875 41.828125 11.296875 L 40.503906 11.296875 C 39.769531 11.296875 39.175781 10.703125 39.175781 9.96875 Z M 39.175781 8.46875 "/>
<path style=" stroke:none;fill-rule:nonzero;fill:rgb(0%,0%,0%);fill-opacity:1;" d="M 63.980469 51.164062 L 63.582031 48.90625 C 63.527344 48.601562 63.238281 48.398438 62.933594 48.453125 L 60.925781 48.804688 C 60.683594 48.238281 60.375 47.707031 60.007812 47.222656 L 61.320312 45.660156 C 61.417969 45.546875 61.464844 45.398438 61.449219 45.25 C 61.4375 45.101562 61.367188 44.964844 61.253906 44.871094 L 59.496094 43.394531 C 59.382812 43.300781 59.234375 43.253906 59.085938 43.265625 C 58.9375 43.28125 58.800781 43.351562 58.707031 43.464844 L 57.394531 45.027344 C 56.855469 44.753906 56.28125 44.542969 55.679688 44.402344 L 55.679688 42.363281 C 55.679688 42.054688 55.425781 41.800781 55.117188 41.800781 L 52.824219 41.800781 C 52.515625 41.800781 52.261719 42.054688 52.261719 42.363281 L 52.261719 44.402344 C 51.660156 44.542969 51.085938 44.753906 50.546875 45.027344 L 49.234375 43.464844 C 49.035156 43.226562 48.683594 43.195312 48.445312 43.394531 L 46.6875 44.871094 C 46.574219 44.964844 46.503906 45.101562 46.488281 45.25 C 46.476562 45.398438 46.523438 45.546875 46.617188 45.660156 L 47.933594 47.222656 C 47.566406 47.707031 47.257812 48.238281 47.015625 48.804688 L 45.007812 48.453125 C 44.703125 48.398438 44.414062 48.601562 44.359375 48.90625 L 43.960938 51.164062 C 43.933594 51.3125 43.96875 51.460938 44.054688 51.582031 C 44.136719 51.703125 44.269531 51.789062 44.414062 51.8125 L 46.425781 52.167969 C 46.457031 52.789062 46.566406 53.394531 46.742188 53.96875 L 44.972656 54.988281 C 44.84375 55.0625 44.75 55.183594 44.710938 55.328125 C 44.675781 55.472656 44.695312 55.625 44.769531 55.753906 L 45.914062 57.738281 C 45.988281 57.867188 46.113281 57.960938 46.253906 58 C 46.304688 58.011719 46.351562 58.019531 46.402344 58.019531 C 46.496094 58.019531 46.59375 57.992188 46.679688 57.945312 L 48.449219 56.921875 C 48.863281 57.367188 49.335938 57.761719 49.847656 58.097656 L 49.148438 60.015625 C 49.097656 60.15625 49.105469 60.308594 49.167969 60.445312 C 49.230469 60.578125 49.34375 60.683594 49.484375 60.734375 L 51.640625 61.519531 C 51.703125 61.539062 51.765625 61.550781 51.832031 61.550781 C 51.914062 61.550781 51.992188 61.535156 52.066406 61.5 C 52.203125 61.4375 52.304688 61.324219 52.355469 61.183594 L 53.054688 59.265625 C 53.355469 59.300781 53.660156 59.320312 53.96875 59.320312 C 54.277344 59.320312 54.582031 59.300781 54.882812 59.265625 L 55.582031 61.183594 C 55.632812 61.324219 55.734375 61.4375 55.871094 61.5 C 55.945312 61.535156 56.027344 61.550781 56.105469 61.550781 C 56.171875 61.550781 56.238281 61.542969 56.296875 61.519531 L 58.453125 60.734375 C 58.59375 60.683594 58.707031 60.578125 58.769531 60.445312 C 58.832031 60.308594 58.839844 60.15625 58.789062 60.015625 L 58.089844 58.097656 C 58.601562 57.765625 59.074219 57.367188 59.488281 56.921875 L 61.257812 57.945312 C 61.34375 57.992188 61.441406 58.019531 61.539062 58.019531 C 61.585938 58.019531 61.636719 58.011719 61.683594 58 C 61.824219 57.960938 61.949219 57.867188 62.023438 57.738281 L 63.167969 55.753906 C 63.242188 55.625 63.265625 55.472656 63.226562 55.328125 C 63.1875 55.183594 63.09375 55.0625 62.964844 54.988281 L 61.195312 53.96875 C 61.371094 53.394531 61.480469 52.789062 61.511719 52.167969 L 63.523438 51.8125 C 63.671875 51.789062 63.800781 51.703125 63.886719 51.582031 C 63.972656 51.460938 64.007812 51.3125 63.980469 51.164062 Z M 53.972656 54.757812 C 52.269531 54.757812 50.894531 53.378906 50.894531 51.675781 C 50.894531 49.976562 52.269531 48.601562 53.972656 48.601562 C 55.671875 48.601562 57.050781 49.976562 57.050781 51.675781 C 57.050781 53.378906 55.671875 54.757812 53.972656 54.757812 Z M 53.972656 54.757812 "/>
<path style=" stroke:none;fill-rule:nonzero;fill:rgb(0%,0%,0%);fill-opacity:1;" d="M 25.097656 35.867188 C 25.097656 35.140625 24.671875 34.476562 24.015625 34.171875 L 18.003906 31.378906 L 24.015625 28.585938 C 24.671875 28.28125 25.097656 27.613281 25.097656 26.890625 L 25.097656 26.84375 C 25.097656 26.199219 24.773438 25.613281 24.234375 25.265625 C 23.933594 25.078125 23.585938 24.976562 23.226562 24.976562 C 22.957031 24.976562 22.683594 25.035156 22.441406 25.148438 L 12.828125 29.617188 C 12.171875 29.921875 11.746094 30.589844 11.746094 31.3125 L 11.746094 31.445312 C 11.746094 32.167969 12.171875 32.832031 12.828125 33.140625 L 22.441406 37.609375 C 22.691406 37.726562 22.953125 37.785156 23.226562 37.785156 C 23.585938 37.785156 23.929688 37.683594 24.234375 37.488281 C 24.773438 37.144531 25.097656 36.554688 25.097656 35.914062 Z M 25.097656 35.867188 "/>
<path style=" stroke:none;fill-rule:nonzero;fill:rgb(0%,0%,0%);fill-opacity:1;" d="M 34.582031 20.421875 C 34.230469 19.941406 33.664062 19.65625 33.070312 19.65625 L 33.023438 19.65625 C 32.207031 19.65625 31.492188 20.175781 31.242188 20.953125 L 24.910156 40.574219 C 24.730469 41.140625 24.832031 41.765625 25.183594 42.246094 C 25.53125 42.722656 26.097656 43.011719 26.691406 43.011719 L 26.738281 43.011719 C 27.554688 43.011719 28.269531 42.488281 28.519531 41.714844 L 34.851562 22.09375 C 35.03125 21.527344 34.929688 20.902344 34.582031 20.421875 Z M 34.582031 20.421875 "/>
<path style=" stroke:none;fill-rule:nonzero;fill:rgb(0%,0%,0%);fill-opacity:1;" d="M 46.933594 29.617188 L 37.320312 25.148438 C 37.078125 25.035156 36.808594 24.976562 36.535156 24.976562 C 36.175781 24.976562 35.828125 25.078125 35.53125 25.265625 C 34.988281 25.613281 34.664062 26.199219 34.664062 26.84375 L 34.664062 26.890625 C 34.664062 27.613281 35.089844 28.277344 35.746094 28.585938 L 41.757812 31.378906 L 35.746094 34.171875 C 35.089844 34.476562 34.664062 35.140625 34.664062 35.867188 L 34.664062 35.914062 C 34.664062 36.554688 34.988281 37.144531 35.53125 37.492188 C 35.832031 37.683594 36.179688 37.785156 36.535156 37.785156 C 36.808594 37.785156 37.070312 37.726562 37.320312 37.609375 L 46.933594 33.140625 C 47.589844 32.832031 48.015625 32.167969 48.015625 31.445312 L 48.015625 31.3125 C 48.015625 30.589844 47.589844 29.921875 46.933594 29.617188 Z M 46.933594 29.617188 "/>
</g>
</svg>
